<svg xmlns="http://www.w3.org/2000/svg" xmlns:xlink="http://www.w3.org/1999/xlink"
    viewBox="0 0 500 350">
    <g>
        <defs>
            <filter id="f-kbeek2dg9s" filterUnits="userSpaceOnUse" x="-6" y="-6" width="12"
                height="82">
                <feGaussianBlur stdDeviation="5" result="blur1" />
                <feMorphology operator="dilate" radius="1.25" in="SourceGraphic" result="dilate" />
                <feComponentTransfer in="dilate" result="dark">
                    <feFuncR type="linear" slope="0.33" />
                    <feFuncG type="linear" slope="0.33" />
                    <feFuncB type="linear" slope="0.33" />
                </feComponentTransfer>
                <feGaussianBlur stdDeviation="2.50" in="dark" result="blur2" />
                <feMerge>
                    <feMergeNode in="blur1" />
                    <feMergeNode in="blur2" />
                    <feMergeNode in="SourceGraphic" />
                </feMerge>
            </filter>
        </defs>
        <path d="M55.56 0L55.56 350" stroke="#3a454a" stroke-width="1" />
        <path d="M0 0L-1 70 A1 1 0 0 0 1 70 Z" fill="#ffffcb" filter="url(#f-kbeek2dg9s)">
            <animateTransform attributeName="transform" type="translate" dur="1.67s"
                repeatCount="indefinite" values="55.56 -82;55.56 350" keyTimes="0;1" begin="-0.42s" />
        </path>
        <path d="M111.11 0L111.11 350" stroke="#3a454a" stroke-width="1" />
        <path d="M0 0L-1 70 A1 1 0 0 0 1 70 Z" fill="#ffffcb" filter="url(#f-kbeek2dg9s)">
            <animateTransform attributeName="transform" type="translate" dur="1.11s"
                repeatCount="indefinite" values="111.11 -82;111.11 350" keyTimes="0;1"
                begin="-1.07s" />
        </path>
        <path d="M166.67 0L166.67 350" stroke="#3a454a" stroke-width="1" />
        <path d="M0 0L-1 70 A1 1 0 0 0 1 70 Z" fill="#fac090" filter="url(#f-kbeek2dg9s)">
            <animateTransform attributeName="transform" type="translate" dur="1.67s"
                repeatCount="indefinite" values="166.67 -82;166.67 350" keyTimes="0;1"
                begin="-1.12s" />
        </path>
        <path d="M222.22 0L222.22 350" stroke="#3a454a" stroke-width="1" />
        <path d="M0 0L-1 70 A1 1 0 0 0 1 70 Z" fill="#dae4bf" filter="url(#f-kbeek2dg9s)">
            <animateTransform attributeName="transform" type="translate" dur="1.11s"
                repeatCount="indefinite" values="222.22 -82;222.22 350" keyTimes="0;1"
                begin="-0.10s" />
        </path>
        <path d="M277.78 0L277.78 350" stroke="#3a454a" stroke-width="1" />
        <path d="M0 0L-1 70 A1 1 0 0 0 1 70 Z" fill="#c0f6d2" filter="url(#f-kbeek2dg9s)">
            <animateTransform attributeName="transform" type="translate" dur="3.33s"
                repeatCount="indefinite" values="277.78 -82;277.78 350" keyTimes="0;1"
                begin="-0.91s" />
        </path>
        <path d="M333.33 0L333.33 350" stroke="#3a454a" stroke-width="1" />
        <path d="M0 0L-1 70 A1 1 0 0 0 1 70 Z" fill="#ff7c81" filter="url(#f-kbeek2dg9s)">
            <animateTransform attributeName="transform" type="translate" dur="1.67s"
                repeatCount="indefinite" values="333.33 -82;333.33 350" keyTimes="0;1"
                begin="-1.37s" />
        </path>
        <path d="M388.89 0L388.89 350" stroke="#3a454a" stroke-width="1" />
        <path d="M0 0L-1 70 A1 1 0 0 0 1 70 Z" fill="#fac090" filter="url(#f-kbeek2dg9s)">
            <animateTransform attributeName="transform" type="translate" dur="1.11s"
                repeatCount="indefinite" values="388.89 -82;388.89 350" keyTimes="0;1"
                begin="-0.84s" />
        </path>
        <path d="M444.44 0L444.44 350" stroke="#3a454a" stroke-width="1" />
        <path d="M0 0L-1 70 A1 1 0 0 0 1 70 Z" fill="#ffffcb" filter="url(#f-kbeek2dg9s)">
            <animateTransform attributeName="transform" type="translate" dur="1.67s"
                repeatCount="indefinite" values="444.44 -82;444.44 350" keyTimes="0;1"
                begin="-0.25s" />
        </path>
        <g />
    </g><!-- [ldio] generated by https://loading.io -->
</svg>